<mxfile host="Electron" agent="Mozilla/5.0 (Windows NT 10.0; Win64; x64) AppleWebKit/537.36 (KHTML, like Gecko) draw.io/24.7.17 Chrome/128.0.6613.36 Electron/32.0.1 Safari/537.36" version="24.7.17">
  <diagram id="C5RBs43oDa-KdzZeNtuy" name="Page-1">
    <mxGraphModel dx="978" dy="566" grid="1" gridSize="10" guides="1" tooltips="1" connect="1" arrows="1" fold="1" page="1" pageScale="1" pageWidth="827" pageHeight="1169" math="0" shadow="0">
      <root>
        <mxCell id="WIyWlLk6GJQsqaUBKTNV-0" />
        <mxCell id="WIyWlLk6GJQsqaUBKTNV-1" parent="WIyWlLk6GJQsqaUBKTNV-0" />
        <mxCell id="NZDyrDz_bfBpwaj4sPDL-4" style="edgeStyle=orthogonalEdgeStyle;rounded=0;orthogonalLoop=1;jettySize=auto;html=1;exitX=0.5;exitY=1;exitDx=0;exitDy=0;entryX=0.5;entryY=0;entryDx=0;entryDy=0;" edge="1" parent="WIyWlLk6GJQsqaUBKTNV-1" source="NZDyrDz_bfBpwaj4sPDL-0" target="NZDyrDz_bfBpwaj4sPDL-1">
          <mxGeometry relative="1" as="geometry" />
        </mxCell>
        <mxCell id="NZDyrDz_bfBpwaj4sPDL-0" value="Upload File" style="rounded=1;whiteSpace=wrap;html=1;" vertex="1" parent="WIyWlLk6GJQsqaUBKTNV-1">
          <mxGeometry x="354" y="40" width="120" height="60" as="geometry" />
        </mxCell>
        <mxCell id="NZDyrDz_bfBpwaj4sPDL-3" style="edgeStyle=orthogonalEdgeStyle;rounded=0;orthogonalLoop=1;jettySize=auto;html=1;exitX=1;exitY=0.5;exitDx=0;exitDy=0;entryX=0;entryY=0.5;entryDx=0;entryDy=0;" edge="1" parent="WIyWlLk6GJQsqaUBKTNV-1" source="NZDyrDz_bfBpwaj4sPDL-1" target="NZDyrDz_bfBpwaj4sPDL-2">
          <mxGeometry relative="1" as="geometry" />
        </mxCell>
        <mxCell id="NZDyrDz_bfBpwaj4sPDL-7" style="edgeStyle=orthogonalEdgeStyle;rounded=0;orthogonalLoop=1;jettySize=auto;html=1;exitX=0.5;exitY=1;exitDx=0;exitDy=0;entryX=0.5;entryY=0;entryDx=0;entryDy=0;" edge="1" parent="WIyWlLk6GJQsqaUBKTNV-1" source="NZDyrDz_bfBpwaj4sPDL-1" target="NZDyrDz_bfBpwaj4sPDL-6">
          <mxGeometry relative="1" as="geometry" />
        </mxCell>
        <mxCell id="NZDyrDz_bfBpwaj4sPDL-1" value="Excel?" style="rhombus;whiteSpace=wrap;html=1;" vertex="1" parent="WIyWlLk6GJQsqaUBKTNV-1">
          <mxGeometry x="345" y="160" width="137" height="80" as="geometry" />
        </mxCell>
        <mxCell id="NZDyrDz_bfBpwaj4sPDL-2" value="Invalid File" style="rounded=1;whiteSpace=wrap;html=1;" vertex="1" parent="WIyWlLk6GJQsqaUBKTNV-1">
          <mxGeometry x="590" y="170" width="120" height="60" as="geometry" />
        </mxCell>
        <mxCell id="NZDyrDz_bfBpwaj4sPDL-5" value="No" style="text;html=1;align=center;verticalAlign=middle;resizable=0;points=[];autosize=1;strokeColor=none;fillColor=none;" vertex="1" parent="WIyWlLk6GJQsqaUBKTNV-1">
          <mxGeometry x="500" y="168" width="40" height="30" as="geometry" />
        </mxCell>
        <mxCell id="NZDyrDz_bfBpwaj4sPDL-10" style="edgeStyle=orthogonalEdgeStyle;rounded=0;orthogonalLoop=1;jettySize=auto;html=1;exitX=1;exitY=0.5;exitDx=0;exitDy=0;entryX=0;entryY=0.5;entryDx=0;entryDy=0;" edge="1" parent="WIyWlLk6GJQsqaUBKTNV-1" source="NZDyrDz_bfBpwaj4sPDL-6" target="NZDyrDz_bfBpwaj4sPDL-9">
          <mxGeometry relative="1" as="geometry" />
        </mxCell>
        <mxCell id="NZDyrDz_bfBpwaj4sPDL-12" style="edgeStyle=orthogonalEdgeStyle;rounded=0;orthogonalLoop=1;jettySize=auto;html=1;exitX=0.5;exitY=1;exitDx=0;exitDy=0;" edge="1" parent="WIyWlLk6GJQsqaUBKTNV-1" source="NZDyrDz_bfBpwaj4sPDL-6" target="NZDyrDz_bfBpwaj4sPDL-11">
          <mxGeometry relative="1" as="geometry" />
        </mxCell>
        <mxCell id="NZDyrDz_bfBpwaj4sPDL-6" value="Model Valid" style="rhombus;whiteSpace=wrap;html=1;" vertex="1" parent="WIyWlLk6GJQsqaUBKTNV-1">
          <mxGeometry x="348" y="310" width="130" height="80" as="geometry" />
        </mxCell>
        <mxCell id="NZDyrDz_bfBpwaj4sPDL-8" value="Yes" style="text;html=1;align=center;verticalAlign=middle;resizable=0;points=[];autosize=1;strokeColor=none;fillColor=none;" vertex="1" parent="WIyWlLk6GJQsqaUBKTNV-1">
          <mxGeometry x="410" y="268" width="40" height="30" as="geometry" />
        </mxCell>
        <mxCell id="NZDyrDz_bfBpwaj4sPDL-9" value="Invalid Schema" style="rounded=1;whiteSpace=wrap;html=1;" vertex="1" parent="WIyWlLk6GJQsqaUBKTNV-1">
          <mxGeometry x="590" y="320" width="120" height="60" as="geometry" />
        </mxCell>
        <mxCell id="NZDyrDz_bfBpwaj4sPDL-14" style="edgeStyle=orthogonalEdgeStyle;rounded=0;orthogonalLoop=1;jettySize=auto;html=1;exitX=0.5;exitY=1;exitDx=0;exitDy=0;" edge="1" parent="WIyWlLk6GJQsqaUBKTNV-1" source="NZDyrDz_bfBpwaj4sPDL-11" target="NZDyrDz_bfBpwaj4sPDL-13">
          <mxGeometry relative="1" as="geometry" />
        </mxCell>
        <mxCell id="NZDyrDz_bfBpwaj4sPDL-11" value="Map Main Category" style="rounded=0;whiteSpace=wrap;html=1;" vertex="1" parent="WIyWlLk6GJQsqaUBKTNV-1">
          <mxGeometry x="353" y="480" width="120" height="60" as="geometry" />
        </mxCell>
        <mxCell id="NZDyrDz_bfBpwaj4sPDL-16" style="edgeStyle=orthogonalEdgeStyle;rounded=0;orthogonalLoop=1;jettySize=auto;html=1;exitX=1;exitY=0.5;exitDx=0;exitDy=0;entryX=0;entryY=0.5;entryDx=0;entryDy=0;" edge="1" parent="WIyWlLk6GJQsqaUBKTNV-1" source="NZDyrDz_bfBpwaj4sPDL-13" target="NZDyrDz_bfBpwaj4sPDL-15">
          <mxGeometry relative="1" as="geometry" />
        </mxCell>
        <mxCell id="NZDyrDz_bfBpwaj4sPDL-20" style="edgeStyle=orthogonalEdgeStyle;rounded=0;orthogonalLoop=1;jettySize=auto;html=1;exitX=0.5;exitY=1;exitDx=0;exitDy=0;entryX=0.5;entryY=0;entryDx=0;entryDy=0;" edge="1" parent="WIyWlLk6GJQsqaUBKTNV-1" source="NZDyrDz_bfBpwaj4sPDL-13" target="NZDyrDz_bfBpwaj4sPDL-19">
          <mxGeometry relative="1" as="geometry" />
        </mxCell>
        <mxCell id="NZDyrDz_bfBpwaj4sPDL-13" value="Found Main Category" style="rhombus;whiteSpace=wrap;html=1;" vertex="1" parent="WIyWlLk6GJQsqaUBKTNV-1">
          <mxGeometry x="344" y="600" width="139" height="80" as="geometry" />
        </mxCell>
        <mxCell id="NZDyrDz_bfBpwaj4sPDL-22" style="edgeStyle=orthogonalEdgeStyle;rounded=0;orthogonalLoop=1;jettySize=auto;html=1;exitX=0.5;exitY=1;exitDx=0;exitDy=0;entryX=1;entryY=0.5;entryDx=0;entryDy=0;" edge="1" parent="WIyWlLk6GJQsqaUBKTNV-1" source="NZDyrDz_bfBpwaj4sPDL-15" target="NZDyrDz_bfBpwaj4sPDL-19">
          <mxGeometry relative="1" as="geometry" />
        </mxCell>
        <mxCell id="NZDyrDz_bfBpwaj4sPDL-15" value="List To Create New MC" style="rounded=0;whiteSpace=wrap;html=1;" vertex="1" parent="WIyWlLk6GJQsqaUBKTNV-1">
          <mxGeometry x="570" y="610" width="120" height="60" as="geometry" />
        </mxCell>
        <mxCell id="NZDyrDz_bfBpwaj4sPDL-17" value="No" style="text;html=1;align=center;verticalAlign=middle;resizable=0;points=[];autosize=1;strokeColor=none;fillColor=none;" vertex="1" parent="WIyWlLk6GJQsqaUBKTNV-1">
          <mxGeometry x="510" y="608" width="40" height="30" as="geometry" />
        </mxCell>
        <mxCell id="NZDyrDz_bfBpwaj4sPDL-23" style="edgeStyle=orthogonalEdgeStyle;rounded=0;orthogonalLoop=1;jettySize=auto;html=1;exitX=0.5;exitY=1;exitDx=0;exitDy=0;" edge="1" parent="WIyWlLk6GJQsqaUBKTNV-1" source="NZDyrDz_bfBpwaj4sPDL-19" target="NZDyrDz_bfBpwaj4sPDL-21">
          <mxGeometry relative="1" as="geometry" />
        </mxCell>
        <mxCell id="NZDyrDz_bfBpwaj4sPDL-19" value="Corruption Check" style="rounded=0;whiteSpace=wrap;html=1;" vertex="1" parent="WIyWlLk6GJQsqaUBKTNV-1">
          <mxGeometry x="354" y="790" width="120" height="60" as="geometry" />
        </mxCell>
        <mxCell id="NZDyrDz_bfBpwaj4sPDL-25" style="edgeStyle=orthogonalEdgeStyle;rounded=0;orthogonalLoop=1;jettySize=auto;html=1;exitX=1;exitY=0.5;exitDx=0;exitDy=0;" edge="1" parent="WIyWlLk6GJQsqaUBKTNV-1" source="NZDyrDz_bfBpwaj4sPDL-21" target="NZDyrDz_bfBpwaj4sPDL-24">
          <mxGeometry relative="1" as="geometry">
            <mxPoint x="540" y="929.8620689655172" as="targetPoint" />
          </mxGeometry>
        </mxCell>
        <mxCell id="NZDyrDz_bfBpwaj4sPDL-28" style="edgeStyle=orthogonalEdgeStyle;rounded=0;orthogonalLoop=1;jettySize=auto;html=1;exitX=0.5;exitY=1;exitDx=0;exitDy=0;entryX=0.5;entryY=0;entryDx=0;entryDy=0;" edge="1" parent="WIyWlLk6GJQsqaUBKTNV-1" source="NZDyrDz_bfBpwaj4sPDL-21" target="NZDyrDz_bfBpwaj4sPDL-27">
          <mxGeometry relative="1" as="geometry" />
        </mxCell>
        <mxCell id="NZDyrDz_bfBpwaj4sPDL-21" value="Is Corrupted" style="rhombus;whiteSpace=wrap;html=1;" vertex="1" parent="WIyWlLk6GJQsqaUBKTNV-1">
          <mxGeometry x="348.5" y="890" width="130" height="80" as="geometry" />
        </mxCell>
        <mxCell id="NZDyrDz_bfBpwaj4sPDL-32" style="edgeStyle=orthogonalEdgeStyle;rounded=0;orthogonalLoop=1;jettySize=auto;html=1;exitX=0.5;exitY=1;exitDx=0;exitDy=0;entryX=0.5;entryY=0;entryDx=0;entryDy=0;" edge="1" parent="WIyWlLk6GJQsqaUBKTNV-1" source="NZDyrDz_bfBpwaj4sPDL-24" target="NZDyrDz_bfBpwaj4sPDL-31">
          <mxGeometry relative="1" as="geometry" />
        </mxCell>
        <mxCell id="NZDyrDz_bfBpwaj4sPDL-24" value="Notice Has Corrupted" style="rounded=0;whiteSpace=wrap;html=1;" vertex="1" parent="WIyWlLk6GJQsqaUBKTNV-1">
          <mxGeometry x="560" y="900" width="140" height="60" as="geometry" />
        </mxCell>
        <mxCell id="NZDyrDz_bfBpwaj4sPDL-26" value="Yes" style="text;html=1;align=center;verticalAlign=middle;resizable=0;points=[];autosize=1;strokeColor=none;fillColor=none;" vertex="1" parent="WIyWlLk6GJQsqaUBKTNV-1">
          <mxGeometry x="490" y="898" width="40" height="30" as="geometry" />
        </mxCell>
        <mxCell id="NZDyrDz_bfBpwaj4sPDL-35" style="edgeStyle=orthogonalEdgeStyle;rounded=0;orthogonalLoop=1;jettySize=auto;html=1;exitX=0.5;exitY=1;exitDx=0;exitDy=0;entryX=0.5;entryY=0;entryDx=0;entryDy=0;" edge="1" parent="WIyWlLk6GJQsqaUBKTNV-1" source="NZDyrDz_bfBpwaj4sPDL-27" target="NZDyrDz_bfBpwaj4sPDL-34">
          <mxGeometry relative="1" as="geometry" />
        </mxCell>
        <mxCell id="NZDyrDz_bfBpwaj4sPDL-37" style="edgeStyle=orthogonalEdgeStyle;rounded=0;orthogonalLoop=1;jettySize=auto;html=1;exitX=0;exitY=0.5;exitDx=0;exitDy=0;" edge="1" parent="WIyWlLk6GJQsqaUBKTNV-1" source="NZDyrDz_bfBpwaj4sPDL-27" target="NZDyrDz_bfBpwaj4sPDL-36">
          <mxGeometry relative="1" as="geometry" />
        </mxCell>
        <mxCell id="NZDyrDz_bfBpwaj4sPDL-27" value="New MC?" style="rhombus;whiteSpace=wrap;html=1;" vertex="1" parent="WIyWlLk6GJQsqaUBKTNV-1">
          <mxGeometry x="351" y="1030" width="124" height="80" as="geometry" />
        </mxCell>
        <mxCell id="NZDyrDz_bfBpwaj4sPDL-29" value="No" style="text;html=1;align=center;verticalAlign=middle;resizable=0;points=[];autosize=1;strokeColor=none;fillColor=none;" vertex="1" parent="WIyWlLk6GJQsqaUBKTNV-1">
          <mxGeometry x="410" y="978" width="40" height="30" as="geometry" />
        </mxCell>
        <mxCell id="NZDyrDz_bfBpwaj4sPDL-33" style="edgeStyle=orthogonalEdgeStyle;rounded=0;orthogonalLoop=1;jettySize=auto;html=1;exitX=0;exitY=0.5;exitDx=0;exitDy=0;" edge="1" parent="WIyWlLk6GJQsqaUBKTNV-1" source="NZDyrDz_bfBpwaj4sPDL-31">
          <mxGeometry relative="1" as="geometry">
            <mxPoint x="480" y="1069.8620689655172" as="targetPoint" />
          </mxGeometry>
        </mxCell>
        <mxCell id="NZDyrDz_bfBpwaj4sPDL-31" value="Fix Corrupted" style="rounded=0;whiteSpace=wrap;html=1;" vertex="1" parent="WIyWlLk6GJQsqaUBKTNV-1">
          <mxGeometry x="560" y="1040" width="140" height="60" as="geometry" />
        </mxCell>
        <mxCell id="NZDyrDz_bfBpwaj4sPDL-42" style="edgeStyle=orthogonalEdgeStyle;rounded=0;orthogonalLoop=1;jettySize=auto;html=1;exitX=0.5;exitY=1;exitDx=0;exitDy=0;entryX=0.5;entryY=0;entryDx=0;entryDy=0;" edge="1" parent="WIyWlLk6GJQsqaUBKTNV-1" source="NZDyrDz_bfBpwaj4sPDL-34" target="NZDyrDz_bfBpwaj4sPDL-41">
          <mxGeometry relative="1" as="geometry" />
        </mxCell>
        <mxCell id="NZDyrDz_bfBpwaj4sPDL-34" value="Bulk Create Sub Category" style="rounded=0;whiteSpace=wrap;html=1;" vertex="1" parent="WIyWlLk6GJQsqaUBKTNV-1">
          <mxGeometry x="354" y="1190" width="120" height="60" as="geometry" />
        </mxCell>
        <mxCell id="NZDyrDz_bfBpwaj4sPDL-40" style="edgeStyle=orthogonalEdgeStyle;rounded=0;orthogonalLoop=1;jettySize=auto;html=1;exitX=0.5;exitY=1;exitDx=0;exitDy=0;entryX=0;entryY=0.5;entryDx=0;entryDy=0;" edge="1" parent="WIyWlLk6GJQsqaUBKTNV-1" source="NZDyrDz_bfBpwaj4sPDL-36" target="NZDyrDz_bfBpwaj4sPDL-34">
          <mxGeometry relative="1" as="geometry" />
        </mxCell>
        <mxCell id="NZDyrDz_bfBpwaj4sPDL-36" value="Create Main Category(Name = SC.Name)" style="rounded=0;whiteSpace=wrap;html=1;" vertex="1" parent="WIyWlLk6GJQsqaUBKTNV-1">
          <mxGeometry x="130" y="1040" width="120" height="60" as="geometry" />
        </mxCell>
        <mxCell id="NZDyrDz_bfBpwaj4sPDL-38" value="No" style="text;html=1;align=center;verticalAlign=middle;resizable=0;points=[];autosize=1;strokeColor=none;fillColor=none;" vertex="1" parent="WIyWlLk6GJQsqaUBKTNV-1">
          <mxGeometry x="410" y="1128" width="40" height="30" as="geometry" />
        </mxCell>
        <mxCell id="NZDyrDz_bfBpwaj4sPDL-39" value="Yes" style="text;html=1;align=center;verticalAlign=middle;resizable=0;points=[];autosize=1;strokeColor=none;fillColor=none;" vertex="1" parent="WIyWlLk6GJQsqaUBKTNV-1">
          <mxGeometry x="280" y="1040" width="40" height="30" as="geometry" />
        </mxCell>
        <mxCell id="NZDyrDz_bfBpwaj4sPDL-41" value="return true" style="rounded=1;whiteSpace=wrap;html=1;" vertex="1" parent="WIyWlLk6GJQsqaUBKTNV-1">
          <mxGeometry x="353" y="1320" width="120" height="60" as="geometry" />
        </mxCell>
      </root>
    </mxGraphModel>
  </diagram>
</mxfile>
